PathFileType	4	(X/Y/Z)	C:\Users\WrightLab\Desktop\Jo\P4V128.trc
DataRate	CameraRate	NumFrames	NumMarkers	Units	OrigDataRate	OrigDataStartFrame	OrigNumFrames
100.00	100.00	       21	19	mm	100.00	367	       489
Frame#	Time	Headset_Front			Headset_Back			Headset_Left			Headset_Right			Left_Shoulder			Right_Shoulder			Sternum			C7			Left Elbow			Right Elbow			Left Wrist			Right Wrist			Left ASIS			Right ASIS			S2			Left Knee			Right Knee			Left Ankle			Right Ankle			
		X1	Y1	Z1	X2	Y2	Z2	X3	Y3	Z3	X4	Y4	Z4	X5	Y5	Z5	X6	Y6	Z6	X7	Y7	Z7	X8	Y8	Z8	X9	Y9	Z9	X10	Y10	Z10	X11	Y11	Z11	X12	Y12	Z12	X13	Y13	Z13	X14	Y14	Z14	X15	Y15	Z15	X16	Y16	Z16	X17	Y17	Z17	X18	Y18	Z18	X19	Y19	Z19	

367	3.660	-134.50020	1762.88489	2083.66040	-67.89524	1740.09314	2215.20728							123.06300	1566.39636	2107.31641	-136.66156	1565.04895	1948.14758	-54.49391	1507.24280	2126.14209				260.94574	1225.82971	2190.91675	-273.65045	1212.88599	1905.48303	204.14412	941.68042	2308.46338	-330.69995	947.48846	2053.76807	70.96888	1081.02405	2216.58887	-206.14383	1067.68237	2033.80493				36.46759	602.19397	2284.41211	-234.81787	586.81055	2044.03296				22.08948	304.69656	1722.62207	
368	3.670	-135.78770	1765.32886	2090.99976	-69.65335	1741.53186	2222.75903							121.48788	1567.54431	2114.21143	-137.57683	1565.84924	1954.00500	-56.15999	1508.91333	2133.96460				257.87799	1227.97668	2203.26563	-274.33826	1214.58569	1909.88135	197.93236	945.85980	2322.25977	-332.36066	951.16748	2060.20093	70.89426	1081.83105	2222.26855	-207.48622	1069.80457	2040.24048				37.13205	602.39752	2286.22681	-240.71506	590.27240	2056.69263				17.41549	303.75235	1737.21729	
369	3.680	-137.09509	1767.27161	2097.78027	-71.17855	1742.86267	2229.82593							119.57436	1569.55908	2122.46704	-138.83365	1567.78406	1961.85144	-57.65499	1510.20068	2139.61060				254.90488	1229.81897	2215.02124	-274.82782	1216.34827	1914.15942	191.69547	949.79816	2337.57837	-334.60538	954.11890	2066.01831	69.72882	1082.19702	2227.40747							37.89368	602.54602	2289.25220	-246.51747	593.45618	2069.68091	29.45394	105.97652	2224.98291	12.40036	301.89185	1753.36658	
370	3.690	-138.38307	1768.66736	2105.03198	-72.62457	1744.54553	2236.94092							118.13705	1570.99219	2131.47095	-140.14359	1569.79773	1970.01172	-59.41021	1511.19519	2147.34058				251.53882	1231.49768	2226.13428	-275.58212	1217.87109	1918.40540	184.66423	953.48999	2352.00732	-337.20746	957.08826	2071.10791	69.80878	1082.81274	2232.76270	-209.65277	1073.36487	2053.03174				38.52906	602.31989	2290.53833	-252.04317	596.54346	2078.48706	29.58866	105.92824	2224.97217	6.93590	298.34360	1771.18848	
371	3.700	-139.82468	1769.22534	2111.45435	-74.32609	1745.84705	2243.98047							116.62119	1571.96143	2138.03174	-141.31259	1571.05115	1975.80408	-60.77289	1511.88037	2152.57275				247.76637	1233.08923	2238.21631	-275.80515	1219.59412	1923.08154	177.35709	957.15680	2365.82617	-339.58496	960.26276	2076.70703	68.45338	1083.83716	2238.22339	-211.01357	1074.43628	2059.68872				39.02660	602.90076	2291.83740	-257.42255	600.20935	2088.86670	29.58866	105.92824	2224.97217	1.86409	294.64578	1785.37366	
372	3.710	-141.43875	1770.10913	2118.97144	-75.51683	1746.68372	2250.18262							115.27496	1572.22693	2144.77490	-142.60616	1573.62390	1984.51184	-62.48512	1513.02087	2159.97559				244.38631	1235.15283	2250.39063	-276.29031	1220.78149	1927.15466	170.52805	961.27783	2380.67871	-341.97269	963.17218	2083.83936	68.00858	1084.48132	2243.75830	-212.87477	1075.82764	2065.13062				39.85685	600.96094	2292.45093	-262.38470	603.17761	2101.85718	29.58866	105.92824	2224.97217	-4.07008	288.98761	1803.43396	
373	3.720	-142.52682	1771.12244	2125.07153	-77.52905	1748.19299	2257.50928							113.76671	1573.73254	2153.17725	-143.07608	1574.83984	1988.96008	-64.15071	1513.81091	2166.09351				240.89920	1235.93091	2261.34033				162.45383	964.96191	2395.00244	-344.01630	966.30756	2090.01758	67.14651	1084.44849	2247.55664	-213.87566	1077.01208	2070.69067				40.73182	601.47461	2294.76660	-267.01532	606.30670	2109.10107	29.58866	105.92824	2224.97217	-9.65593	282.62360	1819.36792	
374	3.730	-143.72711	1772.44043	2131.40332	-79.17475	1749.08594	2264.17725							112.21001	1574.41797	2160.02515	88.95179	1761.55762	2138.41113	-65.39757	1514.72095	2172.61938				237.36685	1237.38452	2272.57275				155.51451	968.94940	2408.48706	-346.18701	968.69751	2095.58105	66.64277	1085.11890	2252.80005	-215.09018	1078.15149	2076.74438				40.91345	601.08698	2296.37964	-271.71451	608.99023	2117.05908	29.65907	105.82752	2225.05518	-16.13555	276.38364	1837.79346	
375	3.740	-144.96486	1773.12561	2137.58911	-80.76499	1750.01624	2270.40869							111.17371	1574.97632	2166.28931	87.63960	1762.40222	2145.16016	-67.06158	1515.03003	2178.45947				233.75063	1238.86511	2283.82715				147.00507	972.09192	2422.22705	-348.76529	970.85889	2100.72437	66.32215	1085.13013	2256.24683	-217.30019	1079.03345	2082.45898				40.94619	601.45001	2298.24634	-275.09723	610.93066	2128.91040	29.58866	105.92824	2224.97217	-21.99933	268.48932	1852.35535	
376	3.750	-145.88594	1774.26843	2143.28687	-82.29691	1750.84998	2276.87109							109.81954	1575.17505	2173.56958	86.36491	1763.28406	2152.32422	-68.07786	1515.50476	2184.76392				230.22687	1239.98254	2294.08423				139.21547	975.97009	2435.10522	-351.05920	972.49164	2106.13818	64.83213	1085.98401	2261.27808	-218.24609	1079.92456	2087.49146				40.93612	600.92206	2299.37427	-278.71252	613.54742	2135.74683	29.58866	105.92824	2224.97217	-28.95372	259.82376	1871.27466	
377	3.760	-147.41435	1774.22021	2150.24414	-83.48846	1751.42798	2282.54980							108.22873	1575.35925	2179.61865	85.78110	1764.18127	2158.02441	-69.09341	1516.29846	2189.62378				227.10513	1240.90698	2304.43555				130.60533	980.44427	2448.98584	-353.00937	975.09906	2112.27612	64.73341	1085.94995	2265.10107	-219.36795	1081.30920	2092.66553				41.20499	600.81268	2299.59692	-281.95932	616.38513	2141.39087	29.45394	105.97652	2224.98291	-35.82793	252.02905	1885.69067	
378	3.770	-148.58995	1775.27246	2156.24609	-85.12547	1752.27222	2289.00903							107.36993	1576.32178	2186.49756	84.80470	1764.91882	2164.14575	-70.45892	1516.65100	2195.80786				221.74907	1243.50952	2316.79346				122.89787	984.14355	2461.74561	-354.89322	977.22778	2118.88843	63.72233	1086.41174	2268.96265	-220.77466	1082.10059	2096.89600				41.81939	601.21661	2300.95679	-284.77573	618.46826	2149.76416	29.45394	105.97652	2224.98291	-43.26188	242.77158	1901.71362	
379	3.780	-149.15610	1775.96973	2161.33911	-86.12689	1752.73083	2294.15674							106.48577	1575.86865	2190.35840	83.69234	1765.74023	2171.22803	-71.63400	1517.13440	2201.21680				217.50383	1244.57092	2326.48267				113.99257	988.68311	2475.01929	-356.25241	978.62201	2123.29468	63.29118	1086.30249	2272.52637	-222.74463	1083.02551	2103.07837				42.65683	599.60571	2301.72681	-287.00769	619.70789	2155.72974	29.45394	105.97652	2224.98291	-50.98204	233.28058	1917.93115	
380	3.790	-149.35391	1776.62354	2165.90259	-87.27422	1753.27917	2300.21680							105.41533	1576.33069	2197.38184	82.66779	1766.38599	2177.01245	-72.15122	1517.96130	2206.29956				213.39578	1245.67761	2335.45752				106.02164	992.79578	2486.82617	-357.49683	979.14404	2127.93164	63.19956	1086.37170	2275.71997	-223.90669	1084.32849	2107.89551				42.25432	599.85559	2303.76660	-288.12988	621.12573	2160.18994	29.45394	105.97652	2224.98291	-59.07493	222.56512	1936.07178	
381	3.800	-150.67390	1778.00940	2171.92480	-88.26467	1753.65027	2305.27026							104.39586	1576.72583	2201.65015	82.01364	1767.04187	2182.80713	-73.00678	1518.31775	2211.59937				209.40031	1246.49048	2344.53198				97.55052	997.42719	2498.50562	-358.92075	981.31952	2134.71436	61.88742	1086.85681	2279.31714	-224.98524	1085.02783	2111.36890				42.48476	600.92828	2306.21704	-289.56839	621.93140	2166.58447	29.45394	105.97652	2224.98291	-67.63967	213.56133	1950.39514	
382	3.810	-151.64189	1778.22595	2177.52393	-89.25320	1754.59045	2310.64966							103.70383	1577.06116	2207.79517	81.13448	1767.52234	2188.52588	-73.97484	1519.01917	2216.54053				204.79877	1247.90125	2352.88770				89.06656	1002.29529	2509.96167				61.30060	1087.00037	2282.26538	-227.05353	1086.66614	2116.24365				42.10888	600.66040	2306.84521	-290.40118	622.81573	2172.25830	29.45394	105.97652	2224.98291	-75.81627	202.30550	1968.09912	
383	3.820	-152.09180	1778.19690	2182.30908	-90.68900	1755.00537	2316.16626							102.74859	1576.73840	2211.54443	80.63847	1767.80676	2193.54883	-74.48553	1518.81335	2221.53613				200.17708	1249.47339	2361.88135				80.53867	1007.03638	2521.03662				60.44459	1087.14893	2285.84399	-228.47173	1087.20508	2120.93921				41.69758	600.25031	2307.69507	-290.68945	623.69080	2177.19849	28.35867	105.82999	2224.87280	-84.33369	192.59955	1981.70532	
384	3.830	-152.93198	1778.67566	2187.80835	-91.24747	1755.21826	2320.88721							102.61587	1577.41162	2216.47925				-75.33336	1519.85510	2226.37769				195.83809	1250.88904	2370.56616				72.01714	1011.59601	2531.32397				59.74585	1087.32507	2289.08276	-229.87759	1087.90759	2125.73438				41.46915	600.01349	2308.18237	-291.14963	624.11615	2181.29541	28.34820	105.83374	2224.88159	-93.05101	181.18796	2002.84668	
385	3.840	-153.35814	1779.64978	2191.91479	-92.12544	1755.40918	2325.34424							101.69554	1577.31677	2220.09985	79.44854	1768.72156	2203.90112	-75.70406	1519.97656	2230.95605				191.16855	1252.33972	2377.93579				63.70773	1016.31738	2541.03589				58.55012	1087.41467	2292.11279	-232.01459	1089.52332	2130.58936				40.91805	599.72845	2308.99878	-290.78659	624.54224	2183.54541	28.27232	105.80285	2224.91162	-101.65422	173.93448	2014.58679	
386	3.850	-153.56015	1780.62805	2195.92993	-93.19363	1756.23328	2330.37378							101.47507	1577.36548	2223.92871	78.87514	1769.70337	2209.30786	-76.43130	1520.86060	2235.20850				186.52988	1254.00391	2385.76001				55.20401	1021.44775	2550.17725				55.49614	1088.84448	2297.85327	-235.05298	1089.66553	2138.88330				40.27654	599.64795	2309.64600	-289.92471	624.32721	2186.35913	28.16238	105.86857	2225.02710	-109.45703	163.57001	2034.57556	
387	3.860	-154.76413	1781.46350	2201.09375	-93.41210	1756.16882	2334.08911							100.88085	1577.47180	2227.98682	78.37099	1769.35364	2212.98413	-76.49603	1520.72583	2239.97803				182.57912	1255.27795	2393.09619				46.82565	1026.47791	2559.47217				52.64049	1090.35962	2303.05444	-236.59464	1090.33057	2142.58862				39.93421	599.59528	2309.95508	-289.26608	624.33679	2186.98804	28.16025	105.87753	2225.03345	-117.71675	156.89381	2045.86328	
